<svg width="503" height="53" viewBox="0 0 503 53" fill="none" xmlns="http://www.w3.org/2000/svg">
<rect y="7" width="503" height="46" fill="#EAEAEA"/>
<rect x="15.7782" width="11" height="11" transform="rotate(45 15.7782 0)" fill="#EAEAEA"/>
<path d="M13.0938 24.9785H20.9756V35H19.6426V26.1611H14.4199V35H13.0938V24.9785ZM22.9854 37.7822V27.7402H24.1064V28.6836C24.3708 28.3145 24.6693 28.0387 25.002 27.8564C25.3346 27.6696 25.738 27.5762 26.2119 27.5762C26.8317 27.5762 27.3786 27.7357 27.8525 28.0547C28.3265 28.3737 28.6842 28.8249 28.9258 29.4082C29.1673 29.987 29.2881 30.6227 29.2881 31.3154C29.2881 32.0583 29.1536 32.7282 28.8848 33.3252C28.6204 33.9176 28.2331 34.3734 27.7227 34.6924C27.2168 35.0068 26.6836 35.1641 26.123 35.1641C25.7129 35.1641 25.3438 35.0775 25.0156 34.9043C24.6921 34.7311 24.4255 34.5124 24.2158 34.248V37.7822H22.9854ZM24.0996 31.4111C24.0996 32.3454 24.2887 33.0358 24.667 33.4824C25.0452 33.929 25.5033 34.1523 26.041 34.1523C26.5879 34.1523 27.055 33.9222 27.4424 33.4619C27.8343 32.9971 28.0303 32.2793 28.0303 31.3086C28.0303 30.3835 27.8389 29.6908 27.4561 29.2305C27.0778 28.7702 26.6243 28.54 26.0957 28.54C25.5716 28.54 25.1068 28.7861 24.7012 29.2783C24.3001 29.766 24.0996 30.4769 24.0996 31.4111ZM35.748 32.6621L37.0195 32.8193C36.819 33.5622 36.4476 34.1387 35.9053 34.5488C35.363 34.959 34.6702 35.1641 33.8271 35.1641C32.7653 35.1641 31.9222 34.8382 31.2979 34.1865C30.6781 33.5303 30.3682 32.612 30.3682 31.4316C30.3682 30.2103 30.6826 29.2624 31.3115 28.5879C31.9404 27.9134 32.7562 27.5762 33.7588 27.5762C34.7295 27.5762 35.5225 27.9066 36.1377 28.5674C36.7529 29.2282 37.0605 30.1579 37.0605 31.3564C37.0605 31.4294 37.0583 31.5387 37.0537 31.6846H31.6396C31.6852 32.4821 31.9108 33.0928 32.3164 33.5166C32.722 33.9404 33.2279 34.1523 33.834 34.1523C34.2852 34.1523 34.6702 34.0339 34.9893 33.7969C35.3083 33.5599 35.5612 33.1816 35.748 32.6621ZM31.708 30.6729H35.7617C35.707 30.0622 35.5521 29.6042 35.2969 29.2988C34.9049 28.8249 34.3968 28.5879 33.7725 28.5879C33.2074 28.5879 32.7311 28.777 32.3438 29.1553C31.9609 29.5335 31.749 30.0394 31.708 30.6729ZM42.7959 27.7402V30.8779C43.1878 30.8779 43.4635 30.8027 43.623 30.6523C43.7826 30.502 44.015 30.0645 44.3203 29.3398C44.6074 28.6517 44.8649 28.2119 45.0928 28.0205C45.3161 27.8337 45.6715 27.7402 46.1592 27.7402H46.6104V28.7588L46.2754 28.752C45.9473 28.752 45.7376 28.7998 45.6465 28.8955C45.5508 28.9958 45.4049 29.2943 45.209 29.791C45.0267 30.265 44.8581 30.5931 44.7031 30.7754C44.5482 30.9577 44.3066 31.124 43.9785 31.2744C44.5117 31.4157 45.0312 31.9079 45.5371 32.751L46.8906 35H45.5371L44.2178 32.751C43.9489 32.2952 43.7142 31.9967 43.5137 31.8555C43.3132 31.7142 43.0739 31.6436 42.7959 31.6436V35H41.5381V31.6436C41.2646 31.6436 41.0277 31.7142 40.8271 31.8555C40.6266 31.9922 40.3919 32.2907 40.123 32.751L38.8037 35H37.4502L38.7969 32.751C39.3073 31.9079 39.8291 31.4157 40.3623 31.2744C39.9977 31.1058 39.7425 30.9235 39.5967 30.7275C39.4508 30.527 39.2321 30.0531 38.9404 29.3057C38.8402 29.055 38.7331 28.9001 38.6191 28.8408C38.5007 28.7816 38.3252 28.752 38.0928 28.752C38.0335 28.752 37.9128 28.7542 37.7305 28.7588V27.7402H37.9014C38.3753 27.7402 38.708 27.7699 38.8994 27.8291C39.0954 27.8838 39.2686 28.0046 39.4189 28.1914C39.5739 28.3737 39.7744 28.7565 40.0205 29.3398C40.3213 30.0553 40.5492 30.4906 40.7041 30.6455C40.8636 30.8005 41.1416 30.8779 41.5381 30.8779V27.7402H42.7959ZM48.7432 27.7402H53.8018V33.9883H54.5879V37.0576H53.5762V35H47.8613V37.0576H46.8496V33.9883H47.499C48.3649 32.8125 48.7796 30.7298 48.7432 27.7402ZM49.7686 28.7588C49.6774 31.1149 49.3128 32.8581 48.6748 33.9883H52.5781V28.7588H49.7686ZM60.918 32.6621L62.1895 32.8193C61.9889 33.5622 61.6175 34.1387 61.0752 34.5488C60.5329 34.959 59.8402 35.1641 58.9971 35.1641C57.9352 35.1641 57.0921 34.8382 56.4678 34.1865C55.848 33.5303 55.5381 32.612 55.5381 31.4316C55.5381 30.2103 55.8525 29.2624 56.4814 28.5879C57.1104 27.9134 57.9261 27.5762 58.9287 27.5762C59.8994 27.5762 60.6924 27.9066 61.3076 28.5674C61.9229 29.2282 62.2305 30.1579 62.2305 31.3564C62.2305 31.4294 62.2282 31.5387 62.2236 31.6846H56.8096C56.8551 32.4821 57.0807 33.0928 57.4863 33.5166C57.8919 33.9404 58.3978 34.1523 59.0039 34.1523C59.4551 34.1523 59.8402 34.0339 60.1592 33.7969C60.4782 33.5599 60.7311 33.1816 60.918 32.6621ZM56.8779 30.6729H60.9316C60.877 30.0622 60.722 29.6042 60.4668 29.2988C60.0749 28.8249 59.5667 28.5879 58.9424 28.5879C58.3773 28.5879 57.901 28.777 57.5137 29.1553C57.1309 29.5335 56.9189 30.0394 56.8779 30.6729ZM67.1865 27.7402H68.417V29.1143C68.417 29.7067 68.4512 30.1374 68.5195 30.4062C68.5924 30.6706 68.7633 30.903 69.0322 31.1035C69.3011 31.2995 69.6383 31.3975 70.0439 31.3975C70.5088 31.3975 71.1104 31.2744 71.8486 31.0283V27.7402H73.0791V35H71.8486V32.0742C71.0921 32.3112 70.3857 32.4297 69.7295 32.4297C69.1781 32.4297 68.6904 32.2907 68.2666 32.0127C67.8473 31.7301 67.5625 31.3861 67.4121 30.9805C67.2617 30.5749 67.1865 30.1283 67.1865 29.6406V27.7402ZM79.9082 32.6621L81.1797 32.8193C80.9792 33.5622 80.6077 34.1387 80.0654 34.5488C79.5231 34.959 78.8304 35.1641 77.9873 35.1641C76.9255 35.1641 76.0824 34.8382 75.458 34.1865C74.8382 33.5303 74.5283 32.612 74.5283 31.4316C74.5283 30.2103 74.8428 29.2624 75.4717 28.5879C76.1006 27.9134 76.9163 27.5762 77.9189 27.5762C78.8896 27.5762 79.6826 27.9066 80.2979 28.5674C80.9131 29.2282 81.2207 30.1579 81.2207 31.3564C81.2207 31.4294 81.2184 31.5387 81.2139 31.6846H75.7998C75.8454 32.4821 76.071 33.0928 76.4766 33.5166C76.8822 33.9404 77.388 34.1523 77.9941 34.1523C78.4453 34.1523 78.8304 34.0339 79.1494 33.7969C79.4684 33.5599 79.7214 33.1816 79.9082 32.6621ZM75.8682 30.6729H79.9219C79.8672 30.0622 79.7122 29.6042 79.457 29.2988C79.0651 28.8249 78.557 28.5879 77.9326 28.5879C77.3675 28.5879 76.8913 28.777 76.5039 29.1553C76.1211 29.5335 75.9092 30.0394 75.8682 30.6729ZM82.7656 27.7402H84.6797L86.5869 33.5508L88.7061 27.7402H90.4766V35H89.2461V29.1553L87.0996 35H85.999L83.9688 28.875V35H82.7656V27.7402ZM97.2236 27.7402H102.282V33.9883H103.068V37.0576H102.057V35H96.3418V37.0576H95.3301V33.9883H95.9795C96.8454 32.8125 97.2601 30.7298 97.2236 27.7402ZM98.249 28.7588C98.1579 31.1149 97.7933 32.8581 97.1553 33.9883H101.059V28.7588H98.249ZM109.398 32.6621L110.67 32.8193C110.469 33.5622 110.098 34.1387 109.556 34.5488C109.013 34.959 108.321 35.1641 107.478 35.1641C106.416 35.1641 105.573 34.8382 104.948 34.1865C104.328 33.5303 104.019 32.612 104.019 31.4316C104.019 30.2103 104.333 29.2624 104.962 28.5879C105.591 27.9134 106.407 27.5762 107.409 27.5762C108.38 27.5762 109.173 27.9066 109.788 28.5674C110.403 29.2282 110.711 30.1579 110.711 31.3564C110.711 31.4294 110.709 31.5387 110.704 31.6846H105.29C105.336 32.4821 105.561 33.0928 105.967 33.5166C106.372 33.9404 106.878 34.1523 107.484 34.1523C107.936 34.1523 108.321 34.0339 108.64 33.7969C108.959 33.5599 109.212 33.1816 109.398 32.6621ZM105.358 30.6729H109.412C109.357 30.0622 109.202 29.6042 108.947 29.2988C108.555 28.8249 108.047 28.5879 107.423 28.5879C106.858 28.5879 106.382 28.777 105.994 29.1553C105.611 29.5335 105.399 30.0394 105.358 30.6729ZM112.222 27.7402H113.452V33.2773L116.863 27.7402H118.189V35H116.959V29.4971L113.548 35H112.222V27.7402ZM116.494 24.9922H117.335C117.267 25.5618 117.057 25.9993 116.706 26.3047C116.36 26.61 115.897 26.7627 115.318 26.7627C114.735 26.7627 114.268 26.6123 113.917 26.3115C113.571 26.0062 113.363 25.5664 113.295 24.9922H114.136C114.2 25.3021 114.325 25.5345 114.512 25.6895C114.703 25.8398 114.958 25.915 115.277 25.915C115.646 25.915 115.924 25.8421 116.111 25.6963C116.303 25.5459 116.43 25.3112 116.494 24.9922ZM124.779 32.3408L125.989 32.498C125.857 33.332 125.518 33.986 124.971 34.46C124.428 34.9294 123.761 35.1641 122.968 35.1641C121.974 35.1641 121.174 34.8405 120.568 34.1934C119.967 33.5417 119.666 32.6097 119.666 31.3975C119.666 30.6136 119.796 29.9277 120.056 29.3398C120.315 28.752 120.71 28.3122 121.238 28.0205C121.771 27.7243 122.35 27.5762 122.975 27.5762C123.763 27.5762 124.408 27.7767 124.909 28.1777C125.41 28.5742 125.732 29.1393 125.873 29.873L124.677 30.0576C124.563 29.57 124.36 29.2031 124.068 28.957C123.781 28.7109 123.433 28.5879 123.022 28.5879C122.403 28.5879 121.899 28.8112 121.512 29.2578C121.124 29.6999 120.931 30.4017 120.931 31.3633C120.931 32.3385 121.118 33.0472 121.491 33.4893C121.865 33.9313 122.353 34.1523 122.954 34.1523C123.437 34.1523 123.84 34.0042 124.164 33.708C124.488 33.4118 124.693 32.9561 124.779 32.3408ZM126.379 27.7402H132.278V28.7588H129.94V35H128.717V28.7588H126.379V27.7402ZM133.461 27.7402H136.298C136.995 27.7402 137.512 27.7995 137.85 27.918C138.191 28.0319 138.483 28.2438 138.725 28.5537C138.971 28.8636 139.094 29.235 139.094 29.668C139.094 30.0143 139.021 30.3174 138.875 30.5771C138.734 30.8324 138.52 31.0465 138.232 31.2197C138.574 31.3337 138.857 31.5479 139.08 31.8623C139.308 32.1722 139.422 32.5413 139.422 32.9697C139.376 33.6579 139.13 34.1683 138.684 34.501C138.237 34.8337 137.588 35 136.735 35H133.461V27.7402ZM134.691 30.7959H136.004C136.528 30.7959 136.888 30.7686 137.084 30.7139C137.28 30.6592 137.455 30.5498 137.61 30.3857C137.765 30.2171 137.843 30.0166 137.843 29.7842C137.843 29.4014 137.706 29.1348 137.433 28.9844C137.164 28.834 136.701 28.7588 136.045 28.7588H134.691V30.7959ZM134.691 33.9883H136.312C137.009 33.9883 137.487 33.9085 137.747 33.749C138.007 33.585 138.144 33.3047 138.157 32.9082C138.157 32.6758 138.082 32.4616 137.932 32.2656C137.781 32.0651 137.585 31.9398 137.344 31.8896C137.102 31.835 136.715 31.8076 136.182 31.8076H134.691V33.9883ZM140.27 31.3701C140.27 30.0257 140.643 29.0299 141.391 28.3828C142.015 27.8451 142.776 27.5762 143.674 27.5762C144.672 27.5762 145.488 27.9043 146.121 28.5605C146.755 29.2122 147.071 30.1146 147.071 31.2676C147.071 32.2018 146.93 32.9378 146.647 33.4756C146.369 34.0088 145.962 34.4235 145.424 34.7197C144.891 35.016 144.307 35.1641 143.674 35.1641C142.658 35.1641 141.835 34.8382 141.206 34.1865C140.582 33.5348 140.27 32.596 140.27 31.3701ZM141.534 31.3701C141.534 32.2998 141.737 32.9971 142.143 33.4619C142.548 33.9222 143.059 34.1523 143.674 34.1523C144.285 34.1523 144.793 33.9199 145.198 33.4551C145.604 32.9902 145.807 32.2816 145.807 31.3291C145.807 30.4313 145.602 29.7523 145.191 29.292C144.786 28.8271 144.28 28.5947 143.674 28.5947C143.059 28.5947 142.548 28.8249 142.143 29.2852C141.737 29.7454 141.534 30.4404 141.534 31.3701ZM148.527 27.7402H151.364C152.062 27.7402 152.579 27.7995 152.916 27.918C153.258 28.0319 153.549 28.2438 153.791 28.5537C154.037 28.8636 154.16 29.235 154.16 29.668C154.16 30.0143 154.087 30.3174 153.941 30.5771C153.8 30.8324 153.586 31.0465 153.299 31.2197C153.641 31.3337 153.923 31.5479 154.146 31.8623C154.374 32.1722 154.488 32.5413 154.488 32.9697C154.443 33.6579 154.197 34.1683 153.75 34.501C153.303 34.8337 152.654 35 151.802 35H148.527V27.7402ZM149.758 30.7959H151.07C151.594 30.7959 151.954 30.7686 152.15 30.7139C152.346 30.6592 152.522 30.5498 152.677 30.3857C152.832 30.2171 152.909 30.0166 152.909 29.7842C152.909 29.4014 152.772 29.1348 152.499 28.9844C152.23 28.834 151.768 28.7588 151.111 28.7588H149.758V30.7959ZM149.758 33.9883H151.378C152.075 33.9883 152.554 33.9085 152.813 33.749C153.073 33.585 153.21 33.3047 153.224 32.9082C153.224 32.6758 153.148 32.4616 152.998 32.2656C152.848 32.0651 152.652 31.9398 152.41 31.8896C152.169 31.835 151.781 31.8076 151.248 31.8076H149.758V33.9883ZM160.531 34.1045C160.076 34.4919 159.636 34.7653 159.212 34.9248C158.793 35.0843 158.341 35.1641 157.858 35.1641C157.061 35.1641 156.448 34.9704 156.02 34.583C155.591 34.1911 155.377 33.6921 155.377 33.0859C155.377 32.7305 155.457 32.4069 155.616 32.1152C155.78 31.819 155.992 31.582 156.252 31.4043C156.516 31.2266 156.812 31.0921 157.141 31.001C157.382 30.9372 157.747 30.8757 158.234 30.8164C159.228 30.6979 159.959 30.5566 160.429 30.3926C160.433 30.224 160.436 30.1169 160.436 30.0713C160.436 29.57 160.319 29.2168 160.087 29.0117C159.772 28.7337 159.305 28.5947 158.686 28.5947C158.107 28.5947 157.678 28.6973 157.4 28.9023C157.127 29.1029 156.924 29.4606 156.792 29.9756L155.589 29.8115C155.698 29.2965 155.878 28.8818 156.129 28.5674C156.38 28.2484 156.742 28.0046 157.216 27.8359C157.69 27.6628 158.239 27.5762 158.863 27.5762C159.483 27.5762 159.987 27.6491 160.374 27.7949C160.761 27.9408 161.046 28.1253 161.229 28.3486C161.411 28.5674 161.538 28.8454 161.611 29.1826C161.652 29.3923 161.673 29.7705 161.673 30.3174V31.958C161.673 33.1019 161.698 33.8265 161.748 34.1318C161.803 34.4326 161.908 34.722 162.062 35H160.777C160.65 34.7448 160.568 34.4463 160.531 34.1045ZM160.429 31.3564C159.982 31.5387 159.312 31.6937 158.419 31.8213C157.913 31.8942 157.555 31.9762 157.346 32.0674C157.136 32.1585 156.974 32.293 156.86 32.4707C156.746 32.6439 156.689 32.8376 156.689 33.0518C156.689 33.3799 156.812 33.6533 157.059 33.8721C157.309 34.0908 157.674 34.2002 158.152 34.2002C158.626 34.2002 159.048 34.0977 159.417 33.8926C159.786 33.6829 160.057 33.3981 160.23 33.0381C160.363 32.7601 160.429 32.3499 160.429 31.8076V31.3564ZM162.609 27.7402H168.509V28.7588H166.171V35H164.947V28.7588H162.609V27.7402ZM169.664 27.7402H170.895V30.5771H172.453C173.469 30.5771 174.251 30.7754 174.798 31.1719C175.349 31.5638 175.625 32.1061 175.625 32.7988C175.625 33.4049 175.395 33.9245 174.935 34.3574C174.479 34.7858 173.747 35 172.74 35H169.664V27.7402ZM170.895 33.9883H172.187C172.966 33.9883 173.522 33.8926 173.854 33.7012C174.187 33.5098 174.354 33.2113 174.354 32.8057C174.354 32.4912 174.23 32.2109 173.984 31.9648C173.738 31.7188 173.194 31.5957 172.351 31.5957H170.895V33.9883ZM177.307 35V33.5986H178.708V35C178.708 35.515 178.617 35.9297 178.435 36.2441C178.252 36.5632 177.963 36.8092 177.566 36.9824L177.225 36.4561C177.484 36.3421 177.676 36.1735 177.799 35.9502C177.922 35.7314 177.99 35.4147 178.004 35H177.307ZM184.785 27.7402H186.016V30.7617H189.427V27.7402H190.657V35H189.427V31.7803H186.016V35H184.785V27.7402ZM197.254 34.1045C196.798 34.4919 196.358 34.7653 195.935 34.9248C195.515 35.0843 195.064 35.1641 194.581 35.1641C193.784 35.1641 193.171 34.9704 192.742 34.583C192.314 34.1911 192.1 33.6921 192.1 33.0859C192.1 32.7305 192.179 32.4069 192.339 32.1152C192.503 31.819 192.715 31.582 192.975 31.4043C193.239 31.2266 193.535 31.0921 193.863 31.001C194.105 30.9372 194.469 30.8757 194.957 30.8164C195.951 30.6979 196.682 30.5566 197.151 30.3926C197.156 30.224 197.158 30.1169 197.158 30.0713C197.158 29.57 197.042 29.2168 196.81 29.0117C196.495 28.7337 196.028 28.5947 195.408 28.5947C194.829 28.5947 194.401 28.6973 194.123 28.9023C193.85 29.1029 193.647 29.4606 193.515 29.9756L192.312 29.8115C192.421 29.2965 192.601 28.8818 192.852 28.5674C193.102 28.2484 193.465 28.0046 193.938 27.8359C194.412 27.6628 194.962 27.5762 195.586 27.5762C196.206 27.5762 196.709 27.6491 197.097 27.7949C197.484 27.9408 197.769 28.1253 197.951 28.3486C198.133 28.5674 198.261 28.8454 198.334 29.1826C198.375 29.3923 198.396 29.7705 198.396 30.3174V31.958C198.396 33.1019 198.421 33.8265 198.471 34.1318C198.525 34.4326 198.63 34.722 198.785 35H197.5C197.372 34.7448 197.29 34.4463 197.254 34.1045ZM197.151 31.3564C196.705 31.5387 196.035 31.6937 195.142 31.8213C194.636 31.8942 194.278 31.9762 194.068 32.0674C193.859 32.1585 193.697 32.293 193.583 32.4707C193.469 32.6439 193.412 32.8376 193.412 33.0518C193.412 33.3799 193.535 33.6533 193.781 33.8721C194.032 34.0908 194.396 34.2002 194.875 34.2002C195.349 34.2002 195.771 34.0977 196.14 33.8926C196.509 33.6829 196.78 33.3981 196.953 33.0381C197.085 32.7601 197.151 32.3499 197.151 31.8076V31.3564ZM201.28 27.7402H206.339V33.9883H207.125V37.0576H206.113V35H200.398V37.0576H199.387V33.9883H200.036C200.902 32.8125 201.317 30.7298 201.28 27.7402ZM202.306 28.7588C202.215 31.1149 201.85 32.8581 201.212 33.9883H205.115V28.7588H202.306ZM208.027 31.3701C208.027 30.0257 208.401 29.0299 209.148 28.3828C209.773 27.8451 210.534 27.5762 211.432 27.5762C212.43 27.5762 213.245 27.9043 213.879 28.5605C214.512 29.2122 214.829 30.1146 214.829 31.2676C214.829 32.2018 214.688 32.9378 214.405 33.4756C214.127 34.0088 213.719 34.4235 213.182 34.7197C212.648 35.016 212.065 35.1641 211.432 35.1641C210.415 35.1641 209.593 34.8382 208.964 34.1865C208.34 33.5348 208.027 32.596 208.027 31.3701ZM209.292 31.3701C209.292 32.2998 209.495 32.9971 209.9 33.4619C210.306 33.9222 210.816 34.1523 211.432 34.1523C212.042 34.1523 212.55 33.9199 212.956 33.4551C213.362 32.9902 213.564 32.2816 213.564 31.3291C213.564 30.4313 213.359 29.7523 212.949 29.292C212.544 28.8271 212.038 28.5947 211.432 28.5947C210.816 28.5947 210.306 28.8249 209.9 29.2852C209.495 29.7454 209.292 30.4404 209.292 31.3701ZM220.182 27.7402H225.91V35H224.68V28.7588H221.412V35H220.182V27.7402ZM227.305 31.3701C227.305 30.0257 227.678 29.0299 228.426 28.3828C229.05 27.8451 229.811 27.5762 230.709 27.5762C231.707 27.5762 232.523 27.9043 233.156 28.5605C233.79 29.2122 234.106 30.1146 234.106 31.2676C234.106 32.2018 233.965 32.9378 233.683 33.4756C233.405 34.0088 232.997 34.4235 232.459 34.7197C231.926 35.016 231.342 35.1641 230.709 35.1641C229.693 35.1641 228.87 34.8382 228.241 34.1865C227.617 33.5348 227.305 32.596 227.305 31.3701ZM228.569 31.3701C228.569 32.2998 228.772 32.9971 229.178 33.4619C229.583 33.9222 230.094 34.1523 230.709 34.1523C231.32 34.1523 231.828 33.9199 232.233 33.4551C232.639 32.9902 232.842 32.2816 232.842 31.3291C232.842 30.4313 232.637 29.7523 232.227 29.292C231.821 28.8271 231.315 28.5947 230.709 28.5947C230.094 28.5947 229.583 28.8249 229.178 29.2852C228.772 29.7454 228.569 30.4404 228.569 31.3701ZM235.562 27.7402H236.793V30.7617H240.204V27.7402H241.435V35H240.204V31.7803H236.793V35H235.562V27.7402ZM249.009 27.7402V35H247.785V32.1699H247.074C246.641 32.1699 246.318 32.2269 246.104 32.3408C245.894 32.4502 245.586 32.8079 245.181 33.4141L244.107 35H242.583L243.909 33.0449C244.315 32.4479 244.718 32.1107 245.119 32.0332C244.417 31.9375 243.896 31.6846 243.554 31.2744C243.216 30.8643 243.048 30.3926 243.048 29.8594C243.048 29.2305 243.269 28.7201 243.711 28.3281C244.158 27.9362 244.802 27.7402 245.646 27.7402H249.009ZM247.785 28.7588H246.035C245.301 28.7588 244.827 28.8727 244.613 29.1006C244.404 29.3285 244.299 29.5951 244.299 29.9004C244.299 30.3333 244.454 30.6523 244.764 30.8574C245.078 31.0579 245.632 31.1582 246.425 31.1582H247.785V28.7588ZM250.219 27.7402H256.118V28.7588H253.78V35H252.557V28.7588H250.219V27.7402ZM257.273 27.7402H258.504V30.5771H260.062C261.079 30.5771 261.86 30.7754 262.407 31.1719C262.959 31.5638 263.234 32.1061 263.234 32.7988C263.234 33.4049 263.004 33.9245 262.544 34.3574C262.088 34.7858 261.357 35 260.35 35H257.273V27.7402ZM258.504 33.9883H259.796C260.575 33.9883 261.131 33.8926 261.464 33.7012C261.797 33.5098 261.963 33.2113 261.963 32.8057C261.963 32.4912 261.84 32.2109 261.594 31.9648C261.348 31.7188 260.803 31.5957 259.96 31.5957H258.504V33.9883Z" fill="#404040"/>
</svg>
